# xmcd
#
# Track frame offsets:
#	150
#	19097
#	39197
#	52187
#	82305
#	93820
#	111300
#	128670
#	143130
#	163857
#	173890
#	190757
#	209605
#	216052
#	235522
#	249807
#	268825
#	288012
#
# Disc length: 4423 seconds
#
# Revision: 0
# Processed by: cddbd v1.5.1PL0 Copyright (c) Steve Scherf et al.
# Submitted via: audiograbber 1.83.01
#
DISCID=fb114512
DTITLE=Jimi Hendrix - Tube Screamin'
DYEAR=1900
DGENRE=Blues
TTITLE0=Come On
TTITLE1=Still Raining, Still Dreaming
TTITLE2=Little Miss Strange
TTITLE3=3rd Stone from the Sun (2)
TTITLE4=Can You see me
TTITLE5=Night Bird Flying
TTITLE6=I don't live today
TTITLE7=Love or Confusion
TTITLE8=House Burning Down
TTITLE9=Have you ever Been
TTITLE10=Red House
TTITLE11=Are you Experienced
TTITLE12=And the Gods made Love
TTITLE13=The Stars that play with Laughing Sam's Dice
TTITLE14=May this Be Love
TTITLE15=Angel
TTITLE16=Free Spirit (Live)
TTITLE17=Voice in the Wind (Live)
EXTD=
EXTT0=
EXTT1=
EXTT2=
EXTT3=
EXTT4=
EXTT5=
EXTT6=
EXTT7=
EXTT8=
EXTT9=
EXTT10=
EXTT11=
EXTT12=
EXTT13=
EXTT14=
EXTT15=
EXTT16=
EXTT17=
PLAYORDER=
